<svg xmlns="http://www.w3.org/2000/svg" viewBox="0 0 175.216 175.552"><defs><linearGradient id="a" x1="85.915" x2="86.535" y1="32.567" y2="137.092" gradientUnits="userSpaceOnUse"><stop offset="0" stop-color="#57d163"/><stop offset="1" stop-color="#23b33a"/></linearGradient><filter id="b" width="1.115" height="1.114" x="-.057" y="-.057" color-interpolation-filters="sRGB"><feGaussianBlur stdDeviation="3.531"/></filter></defs><path fill="#b3b3b3" d="m54.532 138.45 2.235 1.324c9.387 5.571 20.15 8.518 31.126 8.523h.023c33.707 0 61.139-27.426 61.153-61.135.006-16.335-6.349-31.696-17.895-43.251A60.75 60.75 0 0 0 87.94 25.983c-33.733 0-61.166 27.423-61.178 61.13a60.98 60.98 0 0 0 9.349 32.535l1.455 2.312-6.179 22.558zm-40.811 23.544L24.16 123.88c-6.438-11.154-9.825-23.808-9.821-36.772.017-40.556 33.021-73.55 73.578-73.55 19.681.01 38.154 7.669 52.047 21.572s21.537 32.383 21.53 52.037c-.018 40.553-33.027 73.553-73.578 73.553h-.032c-12.313-.005-24.412-3.094-35.159-8.954zm0 0" filter="url(#b)"/><path fill="#fff" d="m87.184 25.227-.002.004c-33.584 0-60.87 27.289-60.885 60.874a60.65 60.65 0 0 0 9.342 32.323l1.454 2.311-6.182 22.559 23.118-6.057 2.235 1.325c9.348 5.56 20.011 8.491 30.879 8.495h.026c33.574 0 60.86-27.294 60.871-60.88a60.61 60.61 0 0 0-17.773-42.921 60.62 60.62 0 0 0-42.983-17.993"/><path fill="url(#a)" d="m87.184 25.227-.002.004c-33.584 0-60.87 27.289-60.885 60.874a60.65 60.65 0 0 0 9.342 32.323l1.454 2.311-6.182 22.559 23.118-6.057 2.235 1.325c9.348 5.56 20.011 8.491 30.879 8.495h.026c33.574 0 60.86-27.294 60.871-60.88a60.61 60.61 0 0 0-17.773-42.921 60.62 60.62 0 0 0-42.983-17.993"/><path fill="#fff" fill-rule="evenodd" d="M68.772 55.603c-1.378-3.054-2.825-3.115-4.138-3.17-1.07-.045-2.293-.042-3.515-.042a6.74 6.74 0 0 0-4.876 2.292c-1.685 1.833-6.43 6.278-6.43 15.31 0 9.03 6.57 17.75 7.476 18.996 1.03 1.244 14.224 22.762 35.16 30.971 17.386 6.824 20.91 5.47 24.683 5.127 3.967-.343 12.818-5.243 14.618-10.304 1.8-5.05 1.8-9.394 1.257-10.304-.544-.91-1.98-1.456-4.143-2.556-2.157-1.092-12.818-6.32-14.797-7.056-1.979-.727-3.435-1.092-4.878 1.91-1.442 2.292-5.585 7.048-6.845 8.504-1.257 1.458-2.52 1.642-4.683.547-2.158-1.089-9.114-3.355-17.356-10.707-6.42-5.718-10.752-12.778-12.01-14.887-1.259-2.292-.135-3.53.947-4.67 1.027-.94 2.157-2.473 3.217-3.716 1.133-1.246 1.48-2.11 2.215-3.534.74-1.422.363-2.674-.188-3.716-.545-1.092-4.877-11.766-6.697-16.12"/></svg> 